<?xml version="1.0" encoding="UTF-8"?>
<svg id="Layer_1" data-name="Layer 1" xmlns="http://www.w3.org/2000/svg" viewBox="0 0 165.54 39.45">
  <defs>
    <style>
      .cls-1 {
        fill: #231f20;
      }
    </style>
  </defs>
  <g>
    <path class="cls-1" d="m65.39,11.8c0,4.81-3.17,8.01-7.33,8.01-1.01,0-2.03-.18-3.15-.68v4.84h-7.85V4.39h7.85v1.17c1.17-.86,2.39-1.3,3.77-1.3,3.9,0,6.71,3.28,6.71,7.54Zm-10.48,2.08c.18.1.73.36,1.35.36.94,0,1.59-.75,1.59-1.9s-.65-1.95-1.59-1.95c-.52,0-.96.23-1.35.73v2.76Z"/>
    <path class="cls-1" d="m83.56,12.53v.49h-8.01c.55,1.56,2,2.5,3.8,2.5,1.66,0,3.25-.62,4.21-1.66v2.68c-1.79,2.37-4.26,3.38-7.41,3.38-5.33,0-8.84-3.22-8.84-8.06,0-4.5,3.2-7.77,8.01-7.77s8.24,3.2,8.24,8.45Zm-8.48-2.18h3.69c-.05-1.48-.78-2.42-1.92-2.42-.96,0-1.77.94-1.77,2.26v.16Z"/>
    <path class="cls-1" d="m98.17,11.7c-1.22,0-2.26-.44-3.17-1.4-.81.7-1.17,1.92-1.17,3.56v5.82h-7.85V4.39h7.85v3.25h.05c.94-2.18,2.44-3.38,4.29-3.38,2.11,0,3.64,1.56,3.64,3.69,0,2.26-1.53,3.74-3.64,3.74Z"/>
    <path class="cls-1" d="m116.4.57v7.7c-.78-.94-1.56-1.38-2.47-1.38-1.2,0-1.98.78-1.98,2.13h4.45v3.22h-4.45v7.44h-7.85v-7.44h-1.69v-3.22h1.69v-.13c0-5.72,3.35-8.89,8.4-8.89,1.17,0,2.55.23,3.9.57Z"/>
    <path class="cls-1" d="m133.69,12.53v.49h-8.01c.55,1.56,2,2.5,3.8,2.5,1.66,0,3.25-.62,4.21-1.66v2.68c-1.79,2.37-4.26,3.38-7.41,3.38-5.33,0-8.84-3.22-8.84-8.06,0-4.5,3.2-7.77,8.01-7.77s8.24,3.2,8.24,8.45Zm-8.48-2.18h3.69c-.05-1.48-.78-2.42-1.92-2.42-.96,0-1.77.94-1.77,2.26v.16Z"/>
    <path class="cls-1" d="m150.3,4.99v6.71c-1.53-.73-3.07-1.12-4.29-1.12-1.48,0-2.39.49-2.39,1.35,0,.94.94,1.48,2.73,1.48,1.48,0,3.04-.34,3.95-.81v6.63c-1.48.44-3.25.68-4.91.68-7.25,0-9.62-4.32-9.62-7.83,0-4.58,3.51-8.01,8.84-8.01,1.74,0,3.9.31,5.69.91Z"/>
    <path class="cls-1" d="m165.46,4.39v4.29h-3.28v3.3c0,1.01.49,1.64,1.46,1.64.73,0,1.38-.36,1.9-1.09v6.06c-1.17.75-2.78,1.22-4.5,1.22-3.77,0-6.71-2.44-6.71-6.21v-4.91h-3.2L162.19.03v4.37h3.28Z"/>
  </g>
  <g>
    <path class="cls-1" d="m8.29,7.27l5.01,18.71-8.29,2.22L0,9.49l8.29-2.22Z"/>
    <path class="cls-1" d="m34.83,4.25c3.21-.86,5.73.7,6.67,4.21l2.49,9.29-7.16,1.92-2.38-8.87c-.26-.98-1.01-1.45-1.84-1.23-.43.11-.95.47-1.25.85l2.68,10-7.16,1.92-2.37-8.84c-.26-.98-.94-1.5-1.84-1.26-.43.11-.9.46-1.25.87l2.67,9.97-7.58,2.03-3.96-14.77,7.58-2.03.5,1.86c.87-1.66,2.21-2.72,4.01-3.2,2.24-.6,3.91-.16,5.46,1.28,1.25-2.27,2.63-3.45,4.71-4.01Z"/>
  </g>
  <g>
    <path class="cls-1" d="m59.68,35.7c-.88,0-1.68-.17-2.63-.76v4.52h-.34v-11.54h2.97c2.24,0,3.81,1.5,3.81,3.79s-1.6,3.99-3.81,3.99Zm-2.63-1.09c.95.56,1.72.77,2.62.77,2.09,0,3.47-1.48,3.47-3.67s-1.46-3.47-3.47-3.47h-2.62v6.37Z"/>
    <path class="cls-1" d="m73.29,28.51l-.2.27c-.68-.54-.97-.68-1.38-.68-.73,0-1.63.77-2.65,2.33v5.12h-.34v-7.63h.34v2.04c.87-1.34,1.85-2.19,2.72-2.19.53,0,.97.27,1.51.75Z"/>
    <path class="cls-1" d="m84.55,31.74c0,2.26-1.56,3.96-3.76,3.96s-3.76-1.7-3.76-3.89c0-2.36,1.55-4.05,3.76-4.05s3.76,1.75,3.76,3.98Zm-7.16,0c0,2.11,1.43,3.65,3.4,3.65s3.4-1.58,3.4-3.65-1.33-3.67-3.42-3.67c-1.89,0-3.38,1.5-3.38,3.67Z"/>
    <path class="cls-1" d="m93.07,35.54c-2.19,0-3.76-1.56-3.76-3.88s1.48-3.91,3.59-3.91c1.02,0,1.8.31,2.57.82v-4.62h.34v11.59h-2.74Zm2.4-6.58c-.82-.6-1.58-.9-2.58-.9-1.94,0-3.21,1.5-3.21,3.6s1.44,3.55,3.4,3.55h2.4v-6.26Z"/>
    <path class="cls-1" d="m101.77,27.91v4.61c0,1.63.7,2.86,2.35,2.86,1.24,0,2.19-.73,2.87-1.89v-5.58h.34v7.63h-.34v-1.53c-.63,1-1.77,1.68-2.87,1.68-1.92,0-2.69-1.33-2.69-3.06v-4.73h.34Z"/>
    <path class="cls-1" d="m118.24,28.08v.36c-.68-.25-1.24-.36-1.9-.36-2.01,0-3.42,1.5-3.42,3.64s1.46,3.65,3.42,3.65c.66,0,1.22-.1,1.9-.36v.36c-.61.2-1.21.32-1.9.32-2.11,0-3.77-1.56-3.77-3.94s1.56-3.99,3.77-3.99c.68,0,1.24.1,1.9.32Z"/>
    <path class="cls-1" d="m122.41,27.91h1.84v-1.92l.34-.25v2.18h2.21v.31h-2.21v5.27c0,1.34.22,1.89,1.19,1.89.36,0,.8-.12,1.28-.34v.34c-.42.22-.87.32-1.28.32-1.21,0-1.53-.65-1.53-2.21v-5.27h-1.84v-.31Z"/>
    <path class="cls-1" d="m132.06,25v1.43h-.34v-1.43h.34Zm-.34,2.91h.34v7.63h-.34v-7.63Z"/>
    <path class="cls-1" d="m144.81,31.74c0,2.26-1.56,3.96-3.76,3.96s-3.76-1.7-3.76-3.89c0-2.36,1.55-4.05,3.76-4.05s3.76,1.75,3.76,3.98Zm-7.16,0c0,2.11,1.43,3.65,3.4,3.65s3.4-1.58,3.4-3.65-1.33-3.67-3.42-3.67c-1.89,0-3.38,1.5-3.38,3.67Z"/>
    <path class="cls-1" d="m155.95,30.82v4.73h-.34v-4.61c0-1.63-.7-2.86-2.35-2.86-1.24,0-2.19.73-2.87,1.89v5.58h-.34v-7.63h.34v1.53c.63-1,1.77-1.68,2.87-1.68,1.92,0,2.69,1.33,2.69,3.06Z"/>
    <path class="cls-1" d="m163.34,27.76c.61,0,1.19.17,1.8.53v.37c-.61-.39-1.19-.59-1.85-.59-1.17,0-1.84.59-1.84,1.61,0,.87.48,1.33,1.99,1.9,1.51.58,1.97,1.14,1.97,2.11,0,1.19-.95,2.01-2.26,2.01-.73,0-1.46-.2-2.09-.59v-.37c.78.48,1.46.65,2.09.65,1.14,0,1.9-.66,1.9-1.68,0-.9-.51-1.34-1.99-1.89-1.46-.54-1.97-1.09-1.97-2.11,0-1.16.83-1.94,2.24-1.94Z"/>
  </g>
</svg>