<?xml version="1.0" encoding="UTF-8"?>
<svg id="Layer_1" data-name="Layer 1" xmlns="http://www.w3.org/2000/svg" viewBox="0 0 242.7 165.36">
  <defs>
    <style>
      .cls-1 {
        fill: #231f20;
      }
    </style>
  </defs>
  <g>
    <path class="cls-1" d="m40.75,0c14.5,0,22.42,22.42,22.42,49.5,0,15.32-2.42,27.97-7.08,36.62,6.67,20.2,10.75,47.28,12,79.24h-28.5c-1.08-43.5-4.75-61.26-11.92-61.26h-.17v61.26H0V0h40.75Zm-13.25,65.92h.75c5,0,7.42-4.88,7.42-15.54,0-9.77-2.25-16.43-6.42-16.43h-1.75v31.96Z"/>
    <path class="cls-1" d="m102.09,0v123.86h24.08v41.51h-51.58V0h27.5Z"/>
  </g>
  <g>
    <path class="cls-1" d="m151.76,142.81l9.3,11.85c1.48-2.55,2.06-5.54,2.31-10.07h1.65c-.25,5.01-1.32,8.43-2.96,11.27l4.12,5.25h-1.81l-3.29-4.19c-2.47,2.51-5.6,4.19-10.21,4.19-6.01,0-9.14-2.99-9.14-8.19,0-4.77,2.14-7.75,7.9-10.36-2.88-3.42-4.03-5.83-4.03-8.53,0-3.28,3.13-5.88,7.99-5.88,4.28,0,7.33,2.31,7.33,5.59s-2.88,6.12-9.14,9.06Zm-1.4.63c-4.94,2.31-6.83,4.96-6.83,9.49,0,5.11,3.13,7.27,7.24,7.27,3.87,0,7.08-1.64,9.39-4.33l-9.8-12.43Zm8.81-9.68c0-2.7-2.22-4.67-5.6-4.67s-6.26,1.59-6.26,4.96c0,2.6,1.07,4.67,3.7,7.9,6.09-2.94,8.15-5.39,8.15-8.19Z"/>
    <path class="cls-1" d="m180.41,160.1v-1.3c1.4.87,3.38,1.35,5.6,1.35,4.2,0,7.08-2.21,7.08-5.97,0-5.92-13.01-13.15-13.01-19.22,0-4.19,3.13-6.89,8.97-6.89,1.65,0,3.29.34,4.77.87v1.11c-1.73-.72-3.46-1.01-4.94-1.01-4.36,0-7,2.02-7,5.92,0,6.02,13.17,12.91,13.17,19.17,0,4.33-3.7,6.98-9.06,6.98-2.14,0-4.03-.34-5.6-1.01Z"/>
    <path class="cls-1" d="m217.87,150.03c0,7.75-3.79,11.22-9.14,11.22s-9.22-3.42-9.22-11.22,4.03-11.27,9.22-11.27c5.52,0,9.14,3.9,9.14,11.27Zm-9.06,10.31c4.53,0,7.33-3.56,7.33-10.31,0-7.08-3.37-10.36-7.49-10.36-4.36,0-7.41,3.56-7.41,10.36s2.96,10.31,7.57,10.31Z"/>
    <path class="cls-1" d="m241.09,145.36v15.32h-1.65v-15.22c0-3.71-2.14-5.54-6.5-5.54-2.72,0-4.94.82-7.25,3.13v17.63h-1.65v-21.34h1.65v2.31h.08c2.06-1.88,4.12-2.65,7.24-2.65,5.43,0,8.07,2.31,8.07,6.36Z"/>
  </g>
  <g>
    <path class="cls-1" d="m134.48,1.13v39.31h8.86V1.13h17.4v107.29h-17.4v-39.89h-8.86v39.89h-17.4V1.13h17.4Z"/>
    <path class="cls-1" d="m198.9,108.42h-15.92v-6.34c-2.16,4.46-5.27,7.06-7.75,7.06-4.64,0-8.28-9.07-8.28-22.18,0-14.69,4.32-24.62,10.6-24.62,1.85,0,3.69.72,5.43,2.02,0-8.21-2.43-12.53-6.27-12.53-3.11,0-5.75,2.02-8.96,6.77v-25.49c4.75-6.34,9.12-10.08,15.29-10.08,11.02,0,15.87,13.11,15.87,38.31v47.09Zm-15.92-18.72v-11.81c-1.11-1.01-1.79-1.3-2.58-1.3-1.95,0-3.22,2.88-3.22,7.35s1.42,8.06,3.32,8.06c.9,0,1.79-.72,2.48-2.3Z"/>
    <path class="cls-1" d="m220.72,1.13v107.29h-15.92V1.13h15.92Z"/>
    <path class="cls-1" d="m242.7,1.13v107.29h-15.92V1.13h15.92Z"/>
  </g>
</svg>